<svg width="82" height="69" viewBox="0 0 82 69" fill="none" xmlns="http://www.w3.org/2000/svg">
<path d="M18.491 11.8804V50.6204C18.4657 53.0558 17.4804 55.3829 15.7493 57.0961C14.0182 58.8093 11.681 59.7703 9.2455 59.7703C6.80996 59.7703 4.47279 58.8093 2.74168 57.0961C1.01056 55.3829 0.0253286 53.0558 0 50.6204V11.8804C0.00159084 9.42857 0.97697 7.07775 2.71162 5.34497C4.44628 3.61219 6.79815 2.63935 9.25 2.64041C10.7833 2.63634 12.2929 3.01805 13.64 3.75042C13.661 3.75942 13.67 3.77042 13.68 3.77042C13.6852 3.77612 13.6923 3.77969 13.7 3.78042C14.4667 4.19873 15.1676 4.72775 15.78 5.35042C16.6396 6.20676 17.3215 7.22443 17.7868 8.34503C18.252 9.46563 18.4913 10.6671 18.491 11.8804Z" fill="url(#paint0_linear_432_8101)"/>
<path d="M39.6199 20.2505V58.9805C39.6199 60.1946 39.3808 61.3968 38.9161 62.5184C38.4515 63.6401 37.7706 64.6592 36.9121 65.5177C36.0536 66.3762 35.0344 67.0572 33.9128 67.5218C32.7911 67.9864 31.589 68.2255 30.3749 68.2255C29.1608 68.2255 27.9586 67.9864 26.837 67.5218C25.7153 67.0572 24.6962 66.3762 23.8377 65.5177C22.9792 64.6592 22.2982 63.6401 21.8336 62.5184C21.369 61.3968 21.1299 60.1946 21.1299 58.9805V20.2505C21.1296 19.0357 21.3687 17.8327 21.8335 16.7104C22.2982 15.588 22.9796 14.5682 23.8386 13.7092C24.6976 12.8502 25.7174 12.1688 26.8397 11.7041C27.9621 11.2393 29.1651 11.0002 30.3799 11.0005C30.7099 11.0005 31.0299 11.0205 31.3399 11.0495H31.3609C33.6291 11.2961 35.7264 12.3715 37.2506 14.0693C38.7748 15.7671 39.6185 17.9679 39.6199 20.2495V20.2505Z" fill="url(#paint1_linear_432_8101)"/>
<path d="M60.8699 9.24038V47.9804C60.8699 50.4323 59.8959 52.7838 58.1621 54.5176C56.4283 56.2514 54.0768 57.2254 51.6249 57.2254C49.173 57.2254 46.8215 56.2514 45.0877 54.5176C43.3539 52.7838 42.3799 50.4323 42.3799 47.9804V9.24038C42.3799 8.02612 42.6192 6.82377 43.0842 5.70207C43.5492 4.58037 44.2307 3.56132 45.0898 2.70317C45.9488 1.84503 46.9686 1.16463 48.0908 0.700859C49.213 0.237094 50.4156 -0.000936448 51.6299 0.000377683C52.0114 -0.00355279 52.3926 0.0232 52.7699 0.0803776H52.7899C54.8232 0.326384 56.7146 1.24921 58.1599 2.70038C59.0195 3.55868 59.7014 4.57815 60.1664 5.7004C60.6315 6.82264 60.8705 8.0256 60.8699 9.24038Z" fill="url(#paint2_linear_432_8101)"/>
<path d="M81.9998 19.8094V58.5404C81.9998 59.7545 81.7606 60.9567 81.296 62.0783C80.8314 63.2 80.1504 64.2191 79.292 65.0776C78.4335 65.9361 77.4143 66.6171 76.2927 67.0817C75.171 67.5463 73.9688 67.7854 72.7548 67.7854C71.5407 67.7854 70.3385 67.5463 69.2169 67.0817C68.0952 66.6171 67.076 65.9361 66.2176 65.0776C65.3591 64.2191 64.6781 63.2 64.2135 62.0783C63.7489 60.9567 63.5098 59.7545 63.5098 58.5404V19.8094C63.5096 18.5946 63.7488 17.3918 64.2136 16.2694C64.6784 15.1471 65.3598 14.1273 66.2187 13.2684C67.0777 12.4094 68.0975 11.7281 69.2198 11.2633C70.3421 10.7985 71.545 10.5593 72.7598 10.5594C73.9832 10.5544 75.1947 10.7998 76.3198 11.2804H76.3298C76.335 11.2861 76.3421 11.2897 76.3498 11.2904C77.4506 11.7504 78.4497 12.4233 79.2898 13.2704C80.1519 14.1266 80.8354 15.1456 81.3007 16.2681C81.7659 17.3906 82.0035 18.5943 81.9998 19.8094Z" fill="url(#paint3_linear_432_8101)"/>
<g style="mix-blend-mode:multiply" opacity="0.3">
<g style="mix-blend-mode:multiply" opacity="0.3">
<path d="M18.491 23.0303V50.6203C18.4657 53.0557 17.4804 55.3827 15.7493 57.0959C14.0182 58.8092 11.681 59.7701 9.2455 59.7701C6.80996 59.7701 4.47279 58.8092 2.74168 57.0959C1.01056 55.3827 0.0253286 53.0557 0 50.6203V49.0303C0 49.0303 0.0200014 49.2593 0.0600014 49.6793C0.0800014 50.1093 0.140001 50.7403 0.241001 51.5093C0.411368 52.4258 0.707145 53.3145 1.12 54.1503C1.84996 55.635 2.98656 56.8818 4.39751 57.7458C5.80846 58.6097 7.43575 59.0551 9.09 59.0303C9.84022 59.0225 10.5863 58.9183 11.31 58.7203C12.8388 58.2899 14.2172 57.4414 15.29 56.2703C16.3886 55.0788 17.112 53.5902 17.37 51.9903C17.39 51.7903 17.44 51.6303 17.45 51.4003L17.491 50.7203C17.51 50.3703 17.5 49.8403 17.51 49.4103C17.51 48.5103 17.52 47.6003 17.53 46.7103C17.53 44.9203 17.59 43.1603 17.611 41.4503C17.68 38.0403 17.79 34.8593 17.92 32.1303C18.161 26.6703 18.491 23.0303 18.491 23.0303Z" fill="black"/>
</g>
</g>
<g style="mix-blend-mode:overlay" opacity="0.6">
<g style="mix-blend-mode:overlay" opacity="0.6">
<path d="M13.681 3.77048C13.3333 3.65714 12.9794 3.56366 12.621 3.49048C11.6971 3.27633 10.7484 3.18886 9.801 3.23048C9.50306 3.2416 9.20612 3.27166 8.912 3.32048C8.60219 3.35856 8.29496 3.41533 7.992 3.49048C5.92909 3.95707 4.08928 5.11865 2.781 6.78048C2.32493 7.33931 1.94186 7.95391 1.641 8.60948C1.35377 9.24419 1.13585 9.90803 0.991001 10.5895C0.917437 10.9362 0.86368 11.2867 0.829998 11.6395L0.799999 11.9095C0.799999 11.9195 0.789999 12.0695 0.779999 12.1395C0.769999 12.3195 0.760001 12.4995 0.741001 12.6695C0.700001 13.3695 0.63 14.0295 0.57 14.6395C0.448158 16.0015 0.257918 17.3566 0 18.6995V11.8795C0.00184638 10.2755 0.420736 8.69962 1.21555 7.30644C2.01036 5.91327 3.15378 4.75071 4.53357 3.93288C5.91336 3.11505 7.4821 2.67006 9.0858 2.64159C10.6895 2.61312 12.273 3.00214 13.681 3.77048Z" fill="white"/>
</g>
</g>
<g style="mix-blend-mode:multiply" opacity="0.3">
<g style="mix-blend-mode:multiply" opacity="0.3">
<path d="M39.6199 31.3594V58.9804C39.6199 60.1945 39.3808 61.3966 38.9161 62.5183C38.4515 63.64 37.7706 64.6591 36.9121 65.5176C36.0536 66.3761 35.0344 67.057 33.9128 67.5217C32.7911 67.9863 31.589 68.2254 30.3749 68.2254C29.1608 68.2254 27.9586 67.9863 26.837 67.5217C25.7153 67.057 24.6962 66.3761 23.8377 65.5176C22.9792 64.6591 22.2982 63.64 21.8336 62.5183C21.369 61.3966 21.1299 60.1945 21.1299 58.9804V57.8604C21.1299 57.8604 21.1499 58.0904 21.1899 58.5094C21.2253 59.1151 21.3089 59.717 21.4399 60.3094C21.8915 62.3685 23.0394 64.209 24.6899 65.5204C25.7594 66.3626 27.0082 66.9476 28.3399 67.2304C28.6802 67.2992 29.0241 67.3493 29.3699 67.3804C29.7493 67.4065 30.1298 67.4132 30.5099 67.4004C31.2632 67.3591 32.0088 67.2278 32.7309 67.0094C34.2266 66.5188 35.5606 65.6304 36.5899 64.4394C37.6455 63.2281 38.3204 61.7324 38.5299 60.1394C38.5889 59.7285 38.6223 59.3144 38.6299 58.8994L38.6399 57.5484C38.6399 56.6484 38.6499 55.7484 38.6609 54.8594C38.6609 53.0894 38.7199 51.3394 38.7409 49.6394C38.8099 46.2584 38.9199 43.0994 39.0499 40.3894C39.2899 34.9704 39.6199 31.3594 39.6199 31.3594Z" fill="black"/>
</g>
</g>
<g style="mix-blend-mode:overlay" opacity="0.6">
<g style="mix-blend-mode:overlay" opacity="0.6">
<path d="M31.3399 11.0495C31.2499 11.0705 30.8999 11.1205 30.3499 11.2005C30.0399 11.2805 29.6609 11.3405 29.2499 11.4605C28.7911 11.5944 28.3404 11.7543 27.8999 11.9395C27.3944 12.163 26.9064 12.4241 26.4399 12.7205C25.9361 13.0542 25.4581 13.4252 25.0099 13.8305C24.5523 14.2742 24.1371 14.7596 23.7699 15.2805C23.392 15.8089 23.0702 16.3753 22.8099 16.9705C22.5563 17.5665 22.3623 18.1862 22.2309 18.8205C22.1638 19.1376 22.1134 19.4581 22.0799 19.7805L22.0299 20.2595L22.0099 20.7805C21.9399 22.1505 21.8299 23.4295 21.6999 24.5305C21.5781 25.7635 21.3878 26.9887 21.1299 28.2005V20.2505C21.1296 19.0357 21.3687 17.8327 21.8335 16.7104C22.2982 15.588 22.9796 14.5682 23.8386 13.7092C24.6976 12.8502 25.7174 12.1688 26.8397 11.7041C27.9621 11.2393 29.1651 11.0002 30.3799 11.0005C30.7099 11.0005 31.0299 11.0205 31.3399 11.0495Z" fill="white"/>
</g>
</g>
<g style="mix-blend-mode:multiply" opacity="0.3">
<g style="mix-blend-mode:multiply" opacity="0.3">
<path d="M60.8699 13.2004V47.9803C60.8699 50.4323 59.8959 52.7838 58.1621 54.5176C56.4283 56.2513 54.0768 57.2254 51.6249 57.2254C49.173 57.2254 46.8215 56.2513 45.0877 54.5176C43.3539 52.7838 42.3799 50.4323 42.3799 47.9803V47.2004C42.3799 47.2004 42.3999 47.4504 42.4399 47.9204C42.4941 48.5932 42.6112 49.2594 42.7899 49.9104C43.0776 50.9022 43.5306 51.8383 44.1299 52.6794C44.8819 53.7534 45.8619 54.6481 46.9999 55.2994C48.3209 56.0663 49.8224 56.467 51.3499 56.4604C52.1595 56.4695 52.9659 56.3548 53.7409 56.1203C54.5565 55.894 55.3323 55.5432 56.0409 55.0804C57.5153 54.1121 58.654 52.7114 59.3009 51.0704L59.5309 50.4504L59.6909 49.7994C59.7509 49.5803 59.7609 49.3703 59.8009 49.1604C59.8438 48.9329 59.8639 48.7018 59.8609 48.4703C59.9109 47.5703 59.8609 46.4804 59.8709 45.5004C59.8809 43.4804 59.8909 41.4603 59.9109 39.4703C59.9109 37.4803 59.9709 35.5304 59.9909 33.6404C60.0609 29.8504 60.1709 26.3203 60.3009 23.2903C60.5399 17.2303 60.8699 13.2004 60.8699 13.2004Z" fill="black"/>
</g>
</g>
<g style="mix-blend-mode:overlay" opacity="0.6">
<g style="mix-blend-mode:overlay" opacity="0.6">
<path d="M52.7699 0.0803776C52.6399 0.100378 52.3099 0.150377 51.8199 0.210377C51.5199 0.230377 51.1299 0.359377 50.7099 0.429377C50.2492 0.556555 49.7953 0.707083 49.3499 0.880377C48.8387 1.09343 48.344 1.34412 47.8699 1.63038C47.3526 1.94663 46.8644 2.30804 46.4109 2.71038C46.1699 2.91038 45.9599 3.15038 45.7409 3.37038C45.5409 3.63038 45.3099 3.85938 45.1299 4.13038C44.7391 4.6519 44.4071 5.21498 44.1399 5.80938C43.8638 6.39842 43.6526 7.01571 43.5099 7.65038C43.4699 7.97038 43.3699 8.21038 43.3399 8.59038L43.2899 9.10938L43.2799 9.24038V9.25038L43.2699 9.25938V9.33038L43.2599 9.59038C43.1899 10.9704 43.0799 12.2504 42.9499 13.3504C42.8284 14.5867 42.6381 15.8153 42.3799 17.0304V9.24038C42.3799 8.02612 42.6192 6.82377 43.0842 5.70207C43.5492 4.58037 44.2307 3.56132 45.0898 2.70317C45.9488 1.84503 46.9686 1.16463 48.0908 0.700859C49.213 0.237094 50.4156 -0.000936448 51.6299 0.000377683C52.0114 -0.00355279 52.3926 0.0232 52.7699 0.0803776Z" fill="white"/>
</g>
</g>
<g style="mix-blend-mode:overlay" opacity="0.6">
<g style="mix-blend-mode:overlay" opacity="0.6">
<path d="M76.3198 11.2804C76.2298 11.2594 75.8698 11.1894 75.2998 11.1204C74.9698 11.0804 74.5698 11.0594 74.1198 11.0494C73.6183 11.0475 73.1173 11.0779 72.6198 11.1404C72.0456 11.2259 71.4777 11.3492 70.9198 11.5094C70.3186 11.7033 69.7362 11.9513 69.1798 12.2504C67.9908 12.9011 66.9571 13.8018 66.1498 14.8904C65.7368 15.4353 65.3879 16.0258 65.1098 16.6504C64.8419 17.2543 64.6374 17.8843 64.4998 18.5304C64.425 18.8562 64.3748 19.1871 64.3498 19.5204L64.3198 19.7704L64.3098 19.8204L64.2998 19.8594L64.2898 19.9904C64.2798 20.1604 64.2698 20.3204 64.2598 20.4904C64.2098 21.1504 64.1498 21.7804 64.0798 22.3504C63.9584 23.643 63.7681 24.9281 63.5098 26.2004V19.8094C63.5096 18.5946 63.7488 17.3918 64.2136 16.2694C64.6784 15.1471 65.3598 14.1273 66.2187 13.2684C67.0777 12.4094 68.0975 11.7281 69.2198 11.2633C70.3421 10.7985 71.545 10.5593 72.7598 10.5594C73.9832 10.5544 75.1947 10.7998 76.3198 11.2804Z" fill="white"/>
</g>
</g>
<g style="mix-blend-mode:multiply" opacity="0.3">
<g style="mix-blend-mode:multiply" opacity="0.3">
<path d="M81.9998 33.7004V58.5404C81.9998 59.7544 81.7606 60.9566 81.296 62.0783C80.8314 63.1999 80.1504 64.2191 79.292 65.0776C78.4335 65.936 77.4143 66.617 76.2927 67.0816C75.171 67.5462 73.9688 67.7854 72.7548 67.7854C71.5407 67.7854 70.3385 67.5462 69.2169 67.0816C68.0952 66.617 67.076 65.936 66.2176 65.0776C65.3591 64.2191 64.6781 63.1999 64.2135 62.0783C63.7489 60.9566 63.5098 59.7544 63.5098 58.5404C63.5098 58.5404 63.5398 58.7504 63.5998 59.1504C63.625 59.3875 63.6718 59.6218 63.7398 59.8504C63.8017 60.1668 63.8886 60.4777 63.9998 60.7804C64.5071 62.3146 65.4151 63.6853 66.63 64.7508C67.8449 65.8162 69.3225 66.5376 70.9098 66.8404C71.2398 66.9004 71.5498 66.9204 71.8798 66.9604L72.4398 66.9704H72.8098L72.9398 66.9504C73.645 66.9137 74.3433 66.7928 75.0198 66.5904C76.4184 66.1572 77.6822 65.3718 78.6898 64.3094C79.2034 63.7637 79.6468 63.156 80.0098 62.5004C80.3544 61.8358 80.6132 61.1302 80.7798 60.4004C80.869 60.0454 80.9325 59.6845 80.9698 59.3204L81.0098 58.7004V58.5404L81.0198 58.4294V58.1203C81.0198 57.2803 81.0298 56.4394 81.0398 55.6104C81.0398 53.9604 81.0998 52.3204 81.1198 50.7504C81.1898 47.5904 81.2998 44.6404 81.4298 42.1204C81.6698 37.0594 81.9998 33.7004 81.9998 33.7004Z" fill="black"/>
</g>
</g>
<defs>
<linearGradient id="paint0_linear_432_8101" x1="9.2455" y1="1.55491" x2="9.2455" y2="53.7716" gradientUnits="userSpaceOnUse">
<stop stop-color="#FCC400"/>
<stop offset="0.162" stop-color="#FBC000"/>
<stop offset="0.307" stop-color="#FBB500"/>
<stop offset="0.446" stop-color="#FBA300"/>
<stop offset="0.581" stop-color="#FA8900"/>
<stop offset="0.712" stop-color="#FA6800"/>
<stop offset="0.842" stop-color="#F93F00"/>
<stop offset="0.967" stop-color="#F81000"/>
<stop offset="1" stop-color="#F80300"/>
</linearGradient>
<linearGradient id="paint1_linear_432_8101" x1="30.3749" y1="11.8589" x2="30.3749" y2="69.8278" gradientUnits="userSpaceOnUse">
<stop stop-color="#F58033"/>
<stop offset="1" stop-color="#A53826"/>
</linearGradient>
<linearGradient id="paint2_linear_432_8101" x1="51.6249" y1="1.54509" x2="51.6249" y2="53.8491" gradientUnits="userSpaceOnUse">
<stop stop-color="#FCC400"/>
<stop offset="0.162" stop-color="#FBC000"/>
<stop offset="0.307" stop-color="#FBB500"/>
<stop offset="0.446" stop-color="#FBA300"/>
<stop offset="0.581" stop-color="#FA8900"/>
<stop offset="0.712" stop-color="#FA6800"/>
<stop offset="0.842" stop-color="#F93F00"/>
<stop offset="0.967" stop-color="#F81000"/>
<stop offset="1" stop-color="#F80300"/>
</linearGradient>
<linearGradient id="paint3_linear_432_8101" x1="72.7548" y1="11.8755" x2="72.7548" y2="69.8456" gradientUnits="userSpaceOnUse">
<stop stop-color="#F58033"/>
<stop offset="1" stop-color="#A53826"/>
</linearGradient>
</defs>
</svg>
